# xmcd
#
# Track frame offsets: 
#        300
#        14855
#        39791
#        57183
#        70696
#        84209
#        111984
#        131131
#        146312
#        160595
#        185389
#        199344
#        216466
#        226642
#        238801
#        243429
#        245363
#        250433
#        256003
#
# Disc length: 3710 seconds
#
# Revision: 0
# Processed by: cddbd v1.5.2PL0 Copyright (c) Steve Scherf et al.
# Submitted via: ExactAudioCopy v1.0b1
#
DISCID=070e7a13
DTITLE=Chris Thomas King - The Roots
DYEAR=2003
DGENRE=Acoustic Blues
TTITLE0=Hard Time Killing Floor
TTITLE1=Cypress Grove
TTITLE2=John Law Burned Down the Liquo Sto'
TTITLE3=O Brother, Where Art Thou?
TTITLE4=Come On In My Kitchen
TTITLE5=Watermelon Man
TTITLE6=Trouble Will Soon Be Over
TTITLE7=Dark Clouds
TTITLE8=If I Had Possession Over Judgement Day
TTITLE9=Death Letter Blues
TTITLE10=Sinking Feeling
TTITLE11=Canned Heat Blues
TTITLE12=Southern Chicks Blues
TTITLE13=Rock Island Line
TTITLE14=Midnight Special
TTITLE15=Martha's Blues
TTITLE16=Cotton Fields
TTITLE17=CC Rider
TTITLE18=Raining Angels
EXTD=
EXTT0=
EXTT1=
EXTT2=
EXTT3=
EXTT4=
EXTT5=
EXTT6=
EXTT7=
EXTT8=
EXTT9=
EXTT10=
EXTT11=
EXTT12=
EXTT13=
EXTT14=
EXTT15=
EXTT16=
EXTT17=
EXTT18=
PLAYORDER=
